<?xml version="1.0" encoding="UTF-8"?><svg id="Layer_1" xmlns="http://www.w3.org/2000/svg" viewBox="0 0 2364.93 566.33"><defs><style>.cls-1{letter-spacing:-.04em;}.cls-2{font-family:AkzidenzGroteskBQ-Reg, 'Akzidenz-Grotesk BQ';font-size:200px;}.cls-3{fill:#f6f9fb;}.cls-3,.cls-4,.cls-5{stroke-width:0px;}.cls-4{fill:#092f53;}.cls-5{fill:#cfe7f1;}</style></defs><path class="cls-4" d="M79.05,271.58c1.72-73.25,35.43-141.12,102.27-191.75,36.94-27.98,79.03-44.09,125.5-46.9,47.95-2.9,93.01,7.63,134.44,32.3,71.19,42.39,111.87,105.49,122.22,187,7.61,59.97-4.92,116.55-40.06,166.69-25.76,36.75-59.18,64.75-100.61,82.71-58.8,25.49-118.55,28.09-179.3,7.47-35.06-11.9-66.58-29.96-93-55.86-47.77-46.83-71.03-104.26-71.46-181.67ZM249.41,317.26l-.15.24.19-.21-3.19-1.8.03.02c-13.72-6.82-27.42-13.68-41.19-20.39-.89-.43-2.6-.07-3.49.56-2.96,2.08-5.71,4.44-8.54,6.7-4.7,3.34-9.4,6.69-15.17,10.79,46.94,6.43,87.68,22.6,121.59,54,.59-1.03.77-1.22.73-1.29-11.98-20.22-29.71-34.51-48.86-47.34l-1.94-1.29ZM372.05,303.47c-.31.38-.62.76-.93,1.14-.3.38-.6.76-.9,1.14-.46.59-.91,1.19-1.37,1.78-6.35,9.11-12.69,18.22-19.04,27.34.44.5.89,1.01,1.33,1.51,26.96-25.72,56.71-46.92,93.28-57.74-2.7-1.98-4.69-3.46-6.69-4.93v-21.43c-3.33,1.58-6.15,2.89-8.95,4.25-22.73,11.05-41.53,26.85-56.76,46.97,0,0,.03-.02.03-.02ZM266.49,295.26v-.02c-16.75-18.46-36.98-32.15-59.87-43.01,3.64-2.32,6.82-4.1,9.73-6.27,2.48-1.85,4.89-2.44,7.71-1.14,3.29,1.92,6.67,3.71,9.87,5.77,32.21,20.77,57.96,47.41,74.49,82.37,2.76,5.84,5.61,11.63,8.42,17.45-1.88-42.63,4.9-85.4-4.51-127.56,1.93-1.9,5.47-3.75,5.52-5.71.46-15.58.26-31.19.26-46.88-4.43-.78-9.97,1.02-10.77-4.62-.31-2.19,2.76-4.85,3.79-6.49-3.26-4.77-8.09-9.71-10.26-15.62-2.22-6.03-1.83-13.01-2.62-19.86-1.23-.06-2.85.26-4.11-.28-2.12-.89-4.02-2.32-6.01-3.52,1.46-2.03,2.57-4.52,4.48-5.95,1.89-1.42,4.59-1.76,7.1-2.64-.08-12.95,6.91-20.25,20.41-23.47-1.68-3.86-3.14-7.07-4.48-10.33-1.43-3.48-.75-6.64,2.17-8.98,3.07-2.46,6.53-2.63,9.65-.13,2.94,2.35,3.43,5.36,1.93,8.94-1.44,3.44-2.4,7.07-3.76,11.17,13.74,2.49,19.24,10.67,19.84,22.31,3.63,1.31,7.07,2.15,10.06,3.82,1.39.77,2.76,3.25,2.55,4.74-.19,1.37-2.32,2.93-3.92,3.53-2.09.79-4.51.72-7.17,1.06-.32,13.22,1.56,27.36-12.56,33.91,1.65,2.93,4.57,5.7,4.28,8.07-.73,5.97-6.74,2.83-10.62,4.56,0,13.4.03,26.86-.01,40.32-.01,4.58-.99,9.4,4.39,12.08.56.28.52,1.79.76,2.73-1.42,11.19-3.81,22.35-4.07,33.56-.68,29.61-.43,59.23-.54,88.85,0,.74.15,1.47.3,2.76.64-.83,1.01-1.13,1.15-1.52,5.42-15.26,13.34-29.23,22.44-42.53,17.46-25.53,39.7-45.93,66.66-61.15,3.56-2.21,6.71-1.42,9.98.9,2.58,1.83,5.55,3.1,9.37,5.17v-67.18c13.38,0,26.17.01,38.96,0,6.51-.01,6.45-.04,6.51,6.5.43,41.65.87,83.3,1.38,124.96.04,3.67.61,7.33.94,11-.31-4.64.43-9.27.56-13.92.55-18.32.98-36.64,1.3-54.97.17-10.16.03-20.33,0-30.5-.01-3.11.46-5.79,4.42-5.8,7.83-.01,15.68-.2,23.49.19,1.44.07,3.78,2.39,3.95,3.87.52,4.54.19,9.18.19,14.03-6.84,0-12.99-.12-19.13.09-1.45.05-2.86,1.17-4.29,1.8,1.37.53,2.73,1.49,4.12,1.53,6.27.17,12.55.07,18.89.07v5.43h-22.87c-.05.69-.1,1.38-.16,2.06,7.49,2.22,15.6-.2,23.81,1.43v123.37c2.24-1.87,3.46-3.95,4.39-6.15,17.93-42.26,23.01-85.9,14.09-131.05-10.87-55.08-37.8-100.68-81.74-135.62-36.73-29.21-79.03-45.18-125.91-47.9-48.64-2.83-92.61,11.98-132.03,39.46-45.12,31.44-75.46,73.96-90.18,127.37-12.83,46.56-10.05,92.26,6.23,137.4,1.89,5.24,4.6,10.18,6.93,15.26.51-.09,1.02-.19,1.53-.28v-122.1c6.74,0,12.55.08,18.36-.07,1.19-.03,2.36-.94,3.55-1.45-1.24-.63-2.46-1.77-3.72-1.81-5.78-.2-11.56-.09-17.54-.09v-5.08c6.25,0,12.22-.08,18.18.04,2.67.05,4.3-.38,2.89-4.07h-21.45c0-4.84-.09-9.14.03-13.44.08-3.02,1.72-4.38,4.86-4.32,6.66.13,13.33.05,20,.05,6.09,0,7.26,1.23,7.25,7.28-.03,15-.18,30,.05,45,.2,13.52.83,27.04,1.27,40.55.51,0,1.02,0,1.53,0,.61-20.14,1.54-40.27,1.74-60.41.2-21.49-.2-42.99-.57-64.49-.07-4.15,1.17-5.65,5.37-5.37,5.15.34,10.33.14,15.49.15,8.12.01,16.23,0,25.02,0,0,2.49,0,4.43,0,6.38,0,18.67-.13,37.33.03,56,.07,8.62.69,17.23,1.06,25.85-2.28,1.99-4.57,3.97-6.97,6.06,37.86,12.1,70.39,31.75,96.81,61.29-7.48-16.01-16.68-30.8-29.21-43.36l-1.42-1.42ZM381.03,327.19c-.59.49-1.19.98-1.78,1.47-14.8,11.5-32.68,31.7-35.03,40.29,16.26-15.77,34.64-28.47,55.28-37.63,20.63-9.15,42.25-15.19,66.25-18.28-5.75-4.12-10.16-7.27-14.56-10.42q-10.99-8.78-23.79-3.25c-1.22.53-2.47.97-3.67,1.55-14.79,7.14-29.23,14.87-41.84,25.58-.29.23-.58.45-.87.68ZM143.13,429.92c6.39,4.32,12.17,8.75,20.41,8.68,34.99-.29,69.99-.13,104.99.09,2.71.02,6,1.01,8.02,2.72,11.04,9.37,23.03,15.62,37.97,16.66,20.25,1.41,38.33-2.54,53.75-16.44,1.96-1.77,5.23-2.91,7.9-2.93,34.83-.22,69.66-.45,104.49,0,8.41.11,14.08-4.33,20.57-8.1-3.2-.5-6.31-.5-9.41-.5-37.16-.05-74.33.03-111.49-.25-7.47-.06-14.5-.31-18.94,7.11-.24.4-.78.62-1.16.94-18.77,16.21-57.9,17.68-77.9-2.34-2.7-2.71-5.06-5.62-9.95-5.59-41.33.19-82.66.02-123.99-.04-1.75,0-3.51,0-5.26,0ZM338.81,391.83c1.56-.4,3.2-.63,4.68-1.23,17.07-6.88,34.95-9.87,53.19-10.03,30.83-.28,61.66.06,92.48.14,1.72,0,3.44,0,6.45,0-8.88-6.59-16.57-12.32-24.31-17.98-.72-.52-1.8-.8-2.7-.79-26.16.41-52.28.95-77.93,7.31-18.51,4.58-36.62,9.85-51.87,22.58ZM304.49,390.9l.63-1.25c-2.59-1.71-5.1-3.57-7.8-5.1-13.77-7.78-28.6-12.66-44.02-15.89-21.76-4.56-43.82-5.77-65.98-6.42-8.45-.25-15.89.62-22.53,6.51-4.61,4.09-10.06,7.24-15.13,10.81,2.15,1.2,3.76,1.2,5.37,1.2,27.83-.16,55.66-.24,83.48-.52,19.1-.19,37.93,1.42,56.2,7.39,3.26,1.07,6.51,2.19,9.76,3.28ZM301.17,404.46c.1-.4.2-.81.3-1.21-2.3-.83-4.53-2.05-6.9-2.43-11.31-1.84-22.62-4.69-33.98-4.94-35.63-.76-71.28-.51-106.92-.65-5.95-.02-11.9,0-18.12,0v9.23h165.62ZM508.81,404.18v-8.76c-1.38,0-2.67,0-3.95,0-34.64,0-69.29-.28-103.92.17-13.09.17-26.19,1.82-39.23,3.25-5.75.63-11.38,2.41-17.06,3.67.08.55.17,1.11.25,1.66h163.92ZM160.16,345.42c20.39,1.43,39.97,1.66,59.19,4.46,19.11,2.78,37.85,8.13,56.76,12.35-.47.43-.81-.13-1.3-.44-24.81-15.53-51.34-26.62-80.43-31.06-3.73-.57-8.4-2.54-11.08-1.06-8.01,4.42-15.25,10.24-23.13,15.75ZM367.99,360.81c.24.86.48,1.72.71,2.59,37.19-13.1,75.47-18.63,115.05-17.34-7.67-6.16-15.52-11.56-23.52-16.74-1.04-.68-2.94-.53-4.28-.18-15.41,4.04-31.13,7.24-46.07,12.61-14.39,5.17-27.96,12.62-41.89,19.06ZM304.94,123.54c.45,5.86.31,11.55,1.44,16.97,1.67,7.97,9.11,13.33,17.14,13.35,8.12.02,14.99-4.73,16.28-12.64.94-5.75.18-11.77.18-17.68h-35.04ZM335.56,411.33c-.22-7.07-5.23-11.7-13.6-12.12-6.09-.3-11.84,6.34-11.69,12.57.16,6.71,5.99,12.75,12.26,12.72,6.8-.04,13.08-6.39,13.03-13.17ZM381.39,472.66h-111.84c37.29,4.23,74.57,3.63,111.84,0ZM183.55,195.64v-.03c3.16,0,6.35.22,9.48-.11,1.2-.13,2.26-1.5,3.39-2.3-1.2-.78-2.38-2.19-3.61-2.23-6.48-.2-12.98-.16-19.47.06-1.05.04-2.06,1.36-3.09,2.09,1.11.84,2.15,2.28,3.33,2.4,3.3.33,6.65.12,9.98.12ZM447.72,194.11l1.28,1.44h25.08v-4.63c-7.85,0-15.48-.13-23.11.14-1.12.04-2.17,1.98-3.25,3.05ZM129.8,266.35h16.15q-.22-3.73-12.33-3.51c-2.08.04-5.1-.78-3.82,3.51ZM504.96,266.87v-.08c2.32,0,4.65.15,6.94-.08.82-.08,1.54-1.1,2.3-1.69-.66-.52-1.31-1.47-1.98-1.49-4.46-.12-8.94-.1-13.4.04-.7.02-1.38.94-2.07,1.44.75.62,1.44,1.66,2.26,1.77,1.95.26,3.96.08,5.95.08Z"/><path class="cls-5" d="M224.06,244.81c-2.82-1.29-5.24-.7-7.71,1.14-2.9,2.17-6.09,3.95-9.73,6.27,22.89,10.86,43.12,24.55,59.86,43.01-.79-.13-1.7-.05-2.35-.43-11.63-6.84-22.89-14.43-34.96-20.35-6.5-3.19-14.16-6.85-21.87-1.76-.37-8.62-.99-17.23-1.06-25.85-.16-18.66-.04-37.33-.03-56,0-1.95,0-3.89,0-6.38-8.79,0-16.91,0-25.02,0-5.17,0-10.35.19-15.49-.15-4.2-.28-5.44,1.22-5.37,5.37.36,21.49.77,42.99.57,64.49-.19,20.14-1.13,40.27-1.74,60.41-.51,0-1.02,0-1.53,0-.44-13.52-1.07-27.03-1.27-40.55-.22-15-.07-30-.05-45,.01-6.05-1.16-7.27-7.25-7.28-6.67,0-13.33.08-20-.05-3.14-.06-4.77,1.31-4.86,4.32-.12,4.3-.03,8.6-.03,13.44h21.45c1.41,3.69-.22,4.12-2.89,4.07-5.96-.12-11.93-.04-18.18-.04v5.08c5.97,0,11.76-.11,17.54.09,1.26.04,2.48,1.18,3.72,1.81-1.18.51-2.35,1.42-3.55,1.45-5.81.15-11.62.07-18.36.07v122.1c-.51.09-1.02.19-1.53.28-2.33-5.08-5.04-10.02-6.93-15.26-16.27-45.14-19.06-90.84-6.23-137.4,14.72-53.42,45.07-95.93,90.18-127.37,39.42-27.47,83.39-42.28,132.03-39.46,46.88,2.72,89.18,18.69,125.91,47.9,43.93,34.94,70.86,80.54,81.74,135.62,8.91,45.15,3.84,88.79-14.09,131.05-.93,2.2-2.16,4.28-4.39,6.15v-123.37c-8.2-1.63-16.31.78-23.81-1.43.05-.69.1-1.38.16-2.06h22.87v-5.43c-6.34,0-12.62.09-18.89-.07-1.39-.04-2.75-.99-4.12-1.53,1.43-.63,2.84-1.75,4.29-1.8,6.14-.2,12.3-.09,19.13-.09,0-4.85.33-9.49-.19-14.03-.17-1.48-2.51-3.8-3.95-3.87-7.81-.39-15.66-.2-23.49-.19-3.97,0-4.43,2.69-4.42,5.8.04,10.17.18,20.34,0,30.5-.31,18.32-.75,36.65-1.3,54.97-.14,4.65-.88,9.28-.56,13.92-.33-3.67-.89-7.33-.94-11-.51-41.65-.95-83.3-1.38-124.96-.07-6.54,0-6.51-6.51-6.5-12.79.02-25.59,0-38.96,0v67.18c-3.81-2.07-6.79-3.34-9.37-5.17-3.28-2.33-6.42-3.12-9.98-.9-1.01-1.2-1.77-2.92-3.06-3.52-8.55-3.98-17.14-7.9-25.9-11.38-1.75-.69-4.96-.14-6.34,1.11-6.61,5.98-13.12,12.13-19.1,18.74-4.34,4.8-7.81,10.39-11.66,15.63l-1.38-.97c8.54-26.72,17.47-53.17,46.96-65.79-.74-.43-1.11-.75-1.54-.87-14.01-4.13-28.22-4.36-42.25-.79-8.47,2.15-15.27,7.3-18.29,16.09-1.32,3.86-2.27,7.85-3.38,11.78-.24-.94-.19-2.44-.76-2.73-5.38-2.68-4.41-7.5-4.39-12.08.04-13.46.01-26.92.01-40.32,3.89-1.72,9.89,1.41,10.62-4.56.29-2.37-2.63-5.14-4.28-8.07,14.12-6.54,12.24-20.69,12.56-33.91,2.66-.35,5.08-.28,7.17-1.06,1.6-.6,3.73-2.16,3.92-3.53.21-1.49-1.16-3.97-2.55-4.74-2.99-1.66-6.43-2.5-10.06-3.82-.6-11.64-6.1-19.82-19.84-22.31,1.35-4.09,2.32-7.73,3.76-11.17,1.5-3.58,1-6.59-1.93-8.94-3.12-2.5-6.58-2.33-9.65.13-2.92,2.34-3.6,5.5-2.17,8.98,1.34,3.26,2.8,6.47,4.48,10.33-13.5,3.22-20.49,10.52-20.41,23.47-2.52.88-5.21,1.22-7.1,2.64-1.91,1.43-3.02,3.92-4.48,5.95,1.99,1.2,3.89,2.63,6.01,3.52,1.26.53,2.88.22,4.11.28.79,6.85.4,13.83,2.62,19.86,2.18,5.91,7,10.85,10.26,15.62-1.03,1.64-4.1,4.3-3.79,6.49.79,5.64,6.34,3.84,10.77,4.62,0,15.69.2,31.29-.26,46.88-.06,1.95-3.6,3.81-5.52,5.71-.85-2.34-1.78-4.66-2.54-7.03-2.74-8.49-8.31-14.15-16.71-17.12-11.43-4.03-23.2-3.63-34.97-2.49-3.9.38-7.71,1.54-11.57,2.34,23.16,11.72,50.61,52.36,46.77,70.53-.6-.87-1.09-1.48-1.47-2.16-7.58-13.5-17.03-25.4-30.07-33.98-2.16-1.42-5.69-2.03-8.18-1.4-5.25,1.33-10.34,3.49-15.29,5.75-4.87,2.23-9.5,5-14.24,7.53ZM205.49,180.48c.28-.58.53-.86.54-1.15.08-2.5.16-4.99.14-7.49-.05-5.84-1.96-7.79-7.76-7.79-7.83,0-15.66.07-23.49.14-14.8.13-15.13.5-13.98,15.23.02.29.27.57.51,1.06h44.03ZM438.97,180.63c12.9,0,25.54,0,38.19,0q7.05,0,6.65-7.29c-.04-.66-.09-1.33-.14-1.99-.42-5.94-1.72-7.19-7.7-7.18-7.83.01-15.65.24-23.48.11-13.94-.24-15.09-.31-13.53,16.36ZM421.85,116.47c-8.61-.06-15.59,6.2-15.65,14.06-.06,8.27,6.88,15.16,15.22,15.11,7.61-.05,14.23-6.68,14.34-14.35.11-7.62-6.6-14.76-13.91-14.81ZM236.53,131c-.09-8.11-6.92-14.76-15.08-14.69-7.53.07-14.09,6.49-14.14,13.85-.06,8.57,6.61,15.61,14.77,15.59,7.77-.02,14.54-6.93,14.45-14.75ZM366.56,150.9c-.74.56-2.15,1.24-2.08,1.65.23,1.3.68,2.98,1.65,3.66,7.32,5.17,14.73,10.22,22.26,15.07.96.62,2.77-.1,4.19-.2-.52-1.47-.6-3.56-1.63-4.3-6.92-4.87-14.03-9.47-21.1-14.12-.96-.63-2.03-1.1-3.29-1.77ZM281.71,153.29c-.55-.81-.93-1.94-1.4-1.98-1.21-.11-2.7-.1-3.66.51-7.51,4.83-15,9.71-22.3,14.85-1.13.79-1.3,2.94-1.91,4.47,1.62.03,3.67.71,4.79-.02,7.46-4.9,14.74-10.08,22.03-15.23.89-.63,1.54-1.61,2.45-2.6ZM417.9,186.37c-1.26,4.37-7.53,8.02.06,11.37-4.72,4.4-4.26,9.55-3.19,14.57.27,1.29,2.44,2.82,3.89,2.99.95.11,3.03-1.98,3.1-3.17.29-5.03,2.23-10.59-3.64-14.42,5.95-3.78,1.65-7.11-.22-11.35ZM272.4,111.93c-.83-1.58-.98-2.4-1.45-2.69-6.64-4.04-13.29-8.07-20.07-11.87-.63-.36-2.47.63-3.15,1.48-.37.47.2,2.44.89,2.88,6.3,3.99,12.65,7.9,19.18,11.51.92.51,2.82-.76,4.6-1.31ZM398.81,100.88c-.52-1.02-1.05-2.04-1.57-3.06-1.73,0-3.82-.63-5.13.11-5.76,3.25-11.37,6.79-16.87,10.47-1.08.72-1.43,2.52-2.11,3.83,1.61.14,3.58.95,4.76.31,5.68-3.06,11.14-6.54,16.72-9.8,1.31-.77,2.79-1.25,4.2-1.86ZM227.47,198.76c-4.23,2.78-5.91,11.18-3.22,15.06,1.78,2.57,4.41,2.36,5.84-.46,1.72-3.4.38-11.46-2.62-14.6ZM361.71,93.12c.21.49.42.98.63,1.47,1.4,0,3.41.6,4.11-.1,4.06-4.12,7.91-8.47,11.59-12.94.54-.66.14-2.54-.45-3.47-.28-.44-2.51-.38-3.03.19-4.39,4.85-8.59,9.87-12.85,14.84ZM268.16,77.09c-.48,1.87-1.58,3.78-1.05,4.49,3.15,4.25,6.56,8.32,10.16,12.21.69.74,2.58.38,3.91.52-.11-1.2.22-2.73-.39-3.55-2.89-3.84-6-7.5-9.11-11.16-.61-.72-1.57-1.15-3.51-2.51ZM361.27,181.82c.49-1.17,1.87-3.04,1.44-3.67-3.06-4.5-6.44-8.79-9.88-13.01-.39-.47-1.91-.4-2.66-.06-.49.23-1,1.72-.73,2.11,3.27,4.76,6.67,9.42,10.07,14.08.15.21.61.21,1.76.56ZM296.67,167.27c-.63-.97-1.12-2.38-1.65-2.39-1.1-.02-2.61.37-3.27,1.16-2.84,3.43-5.55,6.99-8.04,10.68-.63.93-.26,2.53-.35,3.82,1.46-.24,3.48.03,4.27-.83,2.56-2.78,4.7-5.95,6.94-9.02.76-1.03,1.35-2.19,2.09-3.42ZM378.65,133.64s0,.04,0,.05c-2.66,0-5.34-.18-7.96.11-.84.09-1.55,1.44-2.31,2.22.79.71,1.55,1.98,2.38,2.03,4.64.29,9.3.41,13.94.26.92-.03,1.8-1.51,2.69-2.32-.92-.78-1.75-2.05-2.78-2.25-1.93-.36-3.97-.1-5.96-.1ZM266.33,138.4s0-.02,0-.03c2.31,0,4.65.18,6.93-.09.93-.11,1.74-1.2,2.61-1.85-.8-.89-1.57-2.51-2.41-2.55-4.61-.23-9.25-.19-13.86.04-.83.04-1.59,1.39-2.39,2.14.89.78,1.7,2.06,2.69,2.23,2.09.35,4.28.11,6.43.11ZM230.73,193.74c-1.44-2.63-2.55-4.65-3.65-6.64-1.36,2.15-2.64,4.15-4.14,6.52,1.19,1.32,2.45,2.71,4.01,4.43,1.42-1.62,2.57-2.93,3.78-4.31Z"/><path class="cls-3" d="M224.06,244.81c4.74-2.53,9.36-5.3,14.24-7.53,4.95-2.26,10.04-4.42,15.29-5.75,2.49-.63,6.02-.02,8.18,1.4,13.05,8.58,22.49,20.49,30.07,33.98.38.68.87,1.29,1.47,2.16,3.84-18.16-23.61-58.81-46.77-70.53,3.85-.8,7.67-1.96,11.57-2.34,11.77-1.14,23.54-1.54,34.97,2.49,8.41,2.96,13.97,8.63,16.71,17.12.77,2.37,1.69,4.69,2.54,7.03,9.41,42.15,2.63,84.93,4.51,127.56-2.81-5.81-5.66-11.61-8.42-17.45-16.53-34.97-42.28-61.6-74.49-82.37-3.2-2.06-6.57-3.85-9.87-5.77Z"/><path class="cls-3" d="M333.23,225.59c1.12-3.93,2.06-7.92,3.38-11.78,3.01-8.79,9.82-13.94,18.29-16.09,14.03-3.57,28.24-3.34,42.25.79.42.13.79.44,1.54.87-29.48,12.62-38.41,39.08-46.96,65.79l1.38.97c3.86-5.24,7.32-10.83,11.66-15.63,5.98-6.6,12.48-12.76,19.1-18.74,1.38-1.25,4.6-1.8,6.34-1.11,8.76,3.48,17.35,7.4,25.9,11.38,1.29.6,2.05,2.32,3.06,3.52-26.95,15.22-49.2,35.62-66.66,61.15-9.1,13.3-17.02,27.27-22.44,42.53-.14.39-.51.69-1.15,1.52-.14-1.28-.3-2.02-.3-2.76.11-29.62-.14-59.25.54-88.85.26-11.21,2.65-22.38,4.07-33.56Z"/><path class="cls-5" d="M143.13,429.92c1.75,0,3.51,0,5.26,0,41.33.06,82.66.23,123.99.04,4.88-.02,7.24,2.89,9.95,5.59,20,20.03,59.13,18.55,77.9,2.34.38-.33.92-.54,1.16-.94,4.44-7.43,11.48-7.17,18.94-7.11,37.16.27,74.33.2,111.49.25,3.11,0,6.21,0,9.41.5-6.49,3.77-12.16,8.21-20.57,8.1-34.82-.44-69.66-.21-104.49,0-2.67.02-5.94,1.16-7.9,2.93-15.42,13.89-33.5,17.84-53.75,16.44-14.94-1.04-26.93-7.28-37.97-16.66-2.02-1.71-5.31-2.71-8.02-2.72-35-.21-70-.37-104.99-.09-8.23.07-14.01-4.36-20.41-8.68Z"/><path class="cls-3" d="M338.81,391.83c15.25-12.73,33.36-18,51.87-22.58,25.64-6.35,51.76-6.89,77.93-7.31.91-.01,1.98.26,2.7.79,7.74,5.66,15.43,11.39,24.31,17.98-3.02,0-4.73,0-6.45,0-30.83-.08-61.66-.42-92.48-.14-18.24.17-36.12,3.15-53.19,10.03-1.48.6-3.12.83-4.68,1.23Z"/><path class="cls-3" d="M304.49,390.9c-3.25-1.1-6.5-2.22-9.76-3.28-18.27-5.97-37.1-7.58-56.2-7.39-27.83.28-55.66.36-83.48.52-1.61,0-3.22,0-5.37-1.2,5.07-3.57,10.52-6.72,15.13-10.81,6.64-5.89,14.08-6.76,22.53-6.51,22.16.65,44.22,1.86,65.98,6.42,15.42,3.23,30.25,8.11,44.02,15.89,2.7,1.53,5.2,3.39,7.8,5.1l-.63,1.25Z"/><path class="cls-3" d="M301.17,404.46h-165.62v-9.23c6.22,0,12.17-.02,18.12,0,35.64.13,71.29-.11,106.92.65,11.36.24,22.68,3.09,33.98,4.94,2.37.39,4.6,1.6,6.9,2.43-.1.4-.2.81-.3,1.21Z"/><path class="cls-3" d="M251.35,318.55c19.15,12.83,36.88,27.12,48.86,47.34.04.07-.14.26-.73,1.29-33.91-31.41-74.65-47.57-121.59-54,5.77-4.1,10.47-7.45,15.17-10.79,1.04.4,2.04.97,3.11,1.16,8.87,1.62,17.84,2.8,26.6,4.87,7.95,1.88,15.68,4.7,23.51,7.1,0,0-.03-.02-.03-.02,1.06.6,2.13,1.2,3.19,1.8l-.19.21s.15-.24.15-.24c.65.43,1.29.86,1.94,1.29Z"/><path class="cls-3" d="M451.19,302.62c4.4,3.15,8.81,6.3,14.56,10.42-24,3.09-45.61,9.13-66.25,18.28-20.64,9.16-39.02,21.86-55.28,37.63,2.35-8.59,20.23-28.8,35.03-40.29.59-.49,1.19-.98,1.78-1.47.29-.23.58-.45.87-.68.97-.12,2.16.07,2.88-.41,9.32-6.28,18.86-12.27,29.83-15.11,12.11-3.13,24.38-5.6,36.58-8.36Z"/><path class="cls-3" d="M508.81,404.18h-163.92c-.08-.55-.17-1.11-.25-1.66,5.68-1.26,11.31-3.04,17.06-3.67,13.04-1.44,26.14-3.08,39.23-3.25,34.64-.45,69.28-.16,103.92-.17,1.28,0,2.57,0,3.95,0v8.76Z"/><path class="cls-3" d="M207.29,272.69c7.71-5.08,15.38-1.42,21.87,1.76,12.08,5.92,23.34,13.51,34.96,20.35.64.38,1.56.3,2.35.43,0,0,.01.02.01.02.47.47.95.95,1.42,1.42,12.53,12.56,21.73,27.35,29.21,43.36-26.42-29.53-58.95-49.19-96.81-61.29,2.4-2.09,4.69-4.07,6.97-6.06Z"/><path class="cls-3" d="M160.16,345.42c7.88-5.51,15.12-11.32,23.13-15.75,2.69-1.48,7.35.49,11.08,1.06,29.09,4.44,55.62,15.53,80.43,31.06.5.31.84.87,1.3.44-18.9-4.22-37.64-9.57-56.76-12.35-19.21-2.79-38.8-3.03-59.19-4.46Z"/><path class="cls-3" d="M367.99,360.81c13.93-6.45,27.5-13.89,41.89-19.06,14.94-5.37,30.66-8.56,46.07-12.61,1.34-.35,3.24-.5,4.28.18,8,5.18,15.85,10.58,23.52,16.74-39.58-1.29-77.86,4.24-115.05,17.34-.24-.86-.47-1.72-.71-2.59Z"/><path class="cls-3" d="M370.23,305.74c.3-.38.6-.76.9-1.14.31-.38.62-.76.93-1.14,0,0-.03.02-.03.02,1.02-.45,2.32-.64,3.02-1.39,10.89-11.67,24.43-19.56,38.19-27.22,8.05-4.48,15.93-9.21,24.51-1.18,2,1.47,4,2.94,6.69,4.93-36.58,10.83-66.32,32.02-93.28,57.74-.44-.5-.89-1.01-1.33-1.51,6.35-9.11,12.69-18.22,19.04-27.34.46-.59.91-1.19,1.37-1.78Z"/><path class="cls-3" d="M304.94,123.54h35.04c0,5.91.75,11.93-.18,17.68-1.29,7.9-8.16,12.66-16.28,12.64-8.03-.02-15.47-5.38-17.14-13.35-1.13-5.42-.99-11.11-1.44-16.97Z"/><path class="cls-5" d="M437.74,273.7c-8.58-8.03-16.46-3.3-24.51,1.18-13.75,7.65-27.3,15.54-38.19,27.22-.7.75-2,.94-3.02,1.39,15.23-20.12,34.04-35.92,56.76-46.97,2.8-1.36,5.62-2.67,8.95-4.25v21.43Z"/><path class="cls-3" d="M335.56,411.33c.05,6.78-6.23,13.13-13.03,13.17-6.27.04-12.1-6-12.26-12.72-.15-6.24,5.6-12.87,11.69-12.57,8.37.41,13.38,5.05,13.6,12.12Z"/><path class="cls-5" d="M381.39,472.66c-37.27,3.63-74.55,4.23-111.84,0h111.84Z"/><path class="cls-5" d="M451.19,302.62c-12.2,2.76-24.48,5.23-36.58,8.36-10.97,2.84-20.51,8.83-29.83,15.11-.72.49-1.91.29-2.88.41,12.61-10.71,27.05-18.44,41.84-25.58,1.19-.58,2.45-1.02,3.67-1.55q12.8-5.53,23.79,3.25Z"/><path class="cls-5" d="M246.29,315.51c-7.83-2.4-15.56-5.23-23.51-7.1-8.76-2.07-17.73-3.24-26.6-4.87-1.07-.2-2.08-.77-3.11-1.16,2.83-2.26,5.59-4.62,8.54-6.7.89-.62,2.6-.99,3.49-.56,13.77,6.71,27.47,13.56,41.19,20.39Z"/><path class="cls-5" d="M183.55,195.64c-3.33,0-6.68.22-9.98-.12-1.18-.12-2.22-1.56-3.33-2.4,1.03-.73,2.04-2.05,3.09-2.09,6.49-.22,12.98-.26,19.47-.06,1.22.04,2.41,1.45,3.61,2.23-1.13.8-2.19,2.17-3.39,2.3-3.13.33-6.31.11-9.48.11v.03Z"/><path class="cls-5" d="M447.72,194.11c1.08-1.06,2.13-3.01,3.25-3.05,7.63-.27,15.26-.14,23.11-.14v4.63h-25.08l-1.28-1.44Z"/><path class="cls-5" d="M129.8,266.35c-1.28-4.3,1.74-3.47,3.82-3.51q12.1-.24,12.33,3.51h-16.15Z"/><path class="cls-5" d="M504.96,266.87c-1.99,0-4,.18-5.95-.08-.82-.11-1.51-1.15-2.26-1.77.69-.5,1.36-1.42,2.07-1.44,4.46-.15,8.94-.16,13.4-.04.67.02,1.32.97,1.98,1.49-.76.59-1.49,1.61-2.3,1.69-2.29.23-4.63.08-6.94.08v.08Z"/><path class="cls-5" d="M249.45,317.29c-1.06-.6-2.13-1.2-3.19-1.8,1.06.6,2.13,1.2,3.19,1.8Z"/><path class="cls-5" d="M251.35,318.55c-.65-.43-1.29-.86-1.94-1.29.65.43,1.29.86,1.94,1.29Z"/><path class="cls-5" d="M381.03,327.19c-.59.49-1.19.98-1.78,1.47.59-.49,1.19-.98,1.78-1.47Z"/><path class="cls-5" d="M267.92,296.68c-.47-.47-.95-.95-1.42-1.42.47.47.95.95,1.42,1.42Z"/><path class="cls-5" d="M370.23,305.74c-.46.59-.91,1.19-1.37,1.78.46-.59.91-1.19,1.37-1.78Z"/><path class="cls-5" d="M372.05,303.47c-.31.38-.62.76-.93,1.14.31-.38.62-.76.93-1.14Z"/><path class="cls-4" d="M205.49,180.48h-44.03c-.24-.49-.49-.77-.51-1.06-1.15-14.74-.82-15.1,13.98-15.23,7.83-.07,15.66-.14,23.49-.14,5.8,0,7.71,1.95,7.76,7.79.02,2.5-.06,4.99-.14,7.49,0,.29-.26.58-.54,1.15Z"/><path class="cls-4" d="M438.97,180.63c-1.57-16.68-.41-16.61,13.53-16.36,7.82.14,15.65-.1,23.48-.11,5.98,0,7.28,1.24,7.7,7.18.05.66.1,1.33.14,1.99q.4,7.28-6.65,7.29c-12.64,0-25.29,0-38.19,0Z"/><path class="cls-4" d="M421.85,116.47c7.31.06,14.01,7.2,13.91,14.81-.11,7.68-6.73,14.3-14.34,14.35-8.34.05-15.28-6.83-15.22-15.11.06-7.85,7.04-14.12,15.65-14.06ZM412.5,123.54c-1.49,2.01-3.26,3.38-3.07,4.37.26,1.33,2.02,2.38,3.14,3.54.96-1.15,2.58-2.25,2.69-3.48.1-1.14-1.42-2.41-2.76-4.43Z"/><path class="cls-4" d="M236.53,131c.09,7.82-6.68,14.73-14.45,14.75-8.16.02-14.83-7.02-14.77-15.59.05-7.37,6.61-13.79,14.14-13.85,8.16-.07,14.99,6.58,15.08,14.69ZM213.4,132.65c1.31-2.29,2.77-3.68,2.6-4.83-.17-1.14-1.98-2.04-3.06-3.05-.89,1.08-2.5,2.17-2.48,3.23.03,1.25,1.48,2.47,2.95,4.65Z"/><path class="cls-4" d="M366.56,150.9c1.26.67,2.33,1.14,3.29,1.77,7.07,4.65,14.19,9.25,21.1,14.12,1.04.73,1.11,2.83,1.63,4.3-1.42.1-3.23.81-4.19.2-7.53-4.85-14.94-9.9-22.26-15.07-.97-.68-1.42-2.36-1.65-3.66-.07-.41,1.33-1.09,2.08-1.65Z"/><path class="cls-4" d="M281.71,153.29c-.91.99-1.56,1.97-2.45,2.6-7.29,5.15-14.57,10.33-22.03,15.23-1.12.73-3.17.05-4.79.02.61-1.52.78-3.68,1.91-4.47,7.31-5.13,14.79-10.02,22.3-14.85.96-.62,2.45-.62,3.66-.51.47.04.85,1.16,1.4,1.98Z"/><path class="cls-4" d="M417.9,186.37c1.86,4.24,6.17,7.57.22,11.35,5.87,3.83,3.93,9.39,3.64,14.42-.07,1.19-2.15,3.28-3.1,3.17-1.45-.17-3.62-1.7-3.89-2.99-1.06-5.02-1.53-10.17,3.19-14.57-7.59-3.35-1.32-7-.06-11.37Z"/><path class="cls-4" d="M272.4,111.93c-1.78.55-3.68,1.82-4.6,1.31-6.52-3.61-12.88-7.52-19.18-11.51-.69-.44-1.27-2.41-.89-2.88.67-.85,2.51-1.83,3.15-1.48,6.78,3.8,13.42,7.83,20.07,11.87.48.29.63,1.11,1.45,2.69Z"/><path class="cls-4" d="M398.81,100.88c-1.4.61-2.88,1.09-4.2,1.86-5.58,3.26-11.03,6.74-16.72,9.8-1.19.64-3.16-.17-4.76-.31.69-1.3,1.04-3.11,2.11-3.83,5.5-3.68,11.11-7.23,16.87-10.47,1.31-.74,3.4-.11,5.13-.11.52,1.02,1.05,2.04,1.57,3.06Z"/><path class="cls-4" d="M227.47,198.76c3,3.15,4.34,11.21,2.62,14.6-1.43,2.82-4.06,3.02-5.84.46-2.69-3.89-1.01-12.28,3.22-15.06Z"/><path class="cls-4" d="M361.71,93.12c4.26-4.97,8.46-9.99,12.85-14.84.52-.58,2.75-.63,3.03-.19.59.92.98,2.81.45,3.47-3.68,4.47-7.52,8.82-11.59,12.94-.69.7-2.7.1-4.11.1-.21-.49-.42-.98-.63-1.47Z"/><path class="cls-4" d="M268.16,77.09c1.94,1.36,2.9,1.79,3.51,2.51,3.11,3.66,6.23,7.33,9.11,11.16.62.82.29,2.35.39,3.55-1.34-.15-3.22.22-3.91-.52-3.59-3.88-7.01-7.96-10.16-12.21-.52-.71.57-2.62,1.05-4.49Z"/><path class="cls-4" d="M361.27,181.82c-1.15-.35-1.6-.34-1.76-.56-3.4-4.66-6.8-9.33-10.07-14.08-.27-.39.23-1.88.73-2.11.75-.35,2.27-.42,2.66.06,3.44,4.23,6.82,8.51,9.88,13.01.43.63-.95,2.5-1.44,3.67Z"/><path class="cls-4" d="M296.67,167.27c-.74,1.23-1.33,2.38-2.09,3.42-2.24,3.06-4.38,6.24-6.94,9.02-.79.86-2.81.59-4.27.83.09-1.29-.28-2.89.35-3.82,2.49-3.69,5.2-7.25,8.04-10.68.65-.79,2.16-1.18,3.27-1.16.52.01,1.02,1.43,1.65,2.39Z"/><path class="cls-4" d="M378.65,133.64c1.99,0,4.04-.26,5.96.1,1.03.19,1.86,1.46,2.78,2.25-.9.81-1.77,2.29-2.69,2.32-4.64.15-9.3.03-13.94-.26-.83-.05-1.59-1.33-2.38-2.03.77-.78,1.47-2.13,2.31-2.22,2.62-.29,5.3-.11,7.96-.11,0-.02,0-.04,0-.05Z"/><path class="cls-4" d="M266.33,138.4c-2.15,0-4.34.24-6.43-.11-.99-.16-1.8-1.45-2.69-2.23.79-.75,1.56-2.1,2.39-2.14,4.61-.23,9.25-.28,13.86-.04.84.04,1.61,1.66,2.41,2.55-.87.65-1.68,1.74-2.61,1.85-2.28.27-4.62.09-6.93.09,0,.01,0,.02,0,.03Z"/><path class="cls-4" d="M230.73,193.74c-1.21,1.38-2.36,2.69-3.78,4.31-1.56-1.72-2.82-3.12-4.01-4.43,1.51-2.37,2.78-4.37,4.14-6.52,1.09,1.99,2.21,4.02,3.65,6.64Z"/><path class="cls-5" d="M412.5,123.54c1.34,2.01,2.86,3.29,2.76,4.43-.11,1.23-1.73,2.33-2.69,3.48-1.12-1.17-2.88-2.21-3.14-3.54-.19-.99,1.57-2.36,3.07-4.37Z"/><path class="cls-5" d="M213.4,132.65c-1.47-2.18-2.91-3.4-2.95-4.65-.03-1.05,1.59-2.15,2.48-3.23,1.09,1.01,2.89,1.91,3.06,3.05.17,1.15-1.28,2.55-2.6,4.83Z"/><text class="cls-2" transform="translate(700.17 339.66)"><tspan x="0" y="0">The </tspan><tspan class="cls-1" x="371" y="0">V</tspan><tspan x="483" y="0">ajello Library</tspan></text></svg>